<?xml version="1.0" encoding="iso-8859-1"?>
<!-- Uploaded to: SVG Repo, www.svgrepo.com, Generator: SVG Repo Mixer Tools -->
<svg fill="#000000" height="800px" width="800px" version="1.1" id="Layer_1" xmlns="http://www.w3.org/2000/svg" xmlns:xlink="http://www.w3.org/1999/xlink" 
	 viewBox="0 0 512 512" xml:space="preserve">
<g>
	<g>
		<path d="M455.674,146.547c-21.606,0-39.184,17.577-39.184,39.184c0,18.924,13.484,34.756,31.35,38.396v144.723
			c0,7.202-5.859,13.061-13.061,13.061h-44.411v-84.642c17.864-3.64,31.347-19.472,31.347-38.395
			c0-21.606-17.577-39.184-39.184-39.184c-21.606,0-39.184,17.577-39.184,39.184c0,18.923,13.483,34.754,31.347,38.395v123.826
			c0,7.203-5.859,13.061-13.061,13.061H304.49v-36.571h57.145V381.91H304.49V143.673c0-15.844-12.891-28.735-28.735-28.735h-10.776
			V88.816c0-11.675-7.699-21.583-18.286-24.92V42.841C246.693,19.219,227.474,0,203.852,0s-42.841,19.219-42.841,42.841v72.098
			H45.877c-15.844,0-28.735,12.891-28.735,28.735v339.592c0,15.844,12.891,28.735,28.735,28.735h229.878
			c15.844,0,28.735-12.891,28.735-28.735v-33.437h57.143c15.844,0,28.735-12.891,28.735-28.735v-23.51h44.411
			c15.844,0,28.735-12.891,28.735-28.735V224.125c17.862-3.641,31.344-19.473,31.344-38.395
			C494.857,164.124,477.28,146.547,455.674,146.547z M238.857,78.367c5.762,0,10.449,4.687,10.449,10.449v26.122h-20.898V88.816
			C228.408,83.055,233.096,78.367,238.857,78.367z M176.686,42.841c0-14.981,12.187-27.167,27.167-27.167
			s27.167,12.187,27.167,27.167v21.056c-10.587,3.336-18.286,13.245-18.286,24.92v26.122h-36.049V42.841z M288.816,483.265
			c0,7.202-5.859,13.061-13.061,13.061H45.877c-7.203,0-13.061-5.859-13.061-13.061V143.673c0-7.202,5.859-13.061,13.061-13.061
			h229.878c7.203,0,13.061,5.859,13.061,13.061V483.265z M382.531,282.384c-12.963,0-23.51-10.547-23.51-23.51
			c0-12.963,10.547-23.51,23.51-23.51s23.51,10.547,23.51,23.51C406.041,271.836,395.494,282.384,382.531,282.384z M455.674,209.241
			c-12.963,0-23.51-10.547-23.51-23.51c0-12.963,10.547-23.51,23.51-23.51s23.51,10.547,23.51,23.51
			C479.184,198.694,468.637,209.241,455.674,209.241z"/>
	</g>
</g>
<g>
	<g>
		<circle cx="455.67" cy="185.731" r="13.061"/>
	</g>
</g>
<g>
	<g>
		<circle cx="382.527" cy="258.873" r="13.061"/>
	</g>
</g>
<g>
	<g>
		<path d="M43.265,141.061v182.857h235.102V141.061H43.265z M262.694,308.245H58.939v-151.51h203.755V308.245z"/>
	</g>
</g>
<g>
	<g>
		<path d="M160.816,331.755c-43.212,0-78.367,35.156-78.367,78.367c0,43.212,35.156,78.367,78.367,78.367
			c43.212,0,78.367-35.156,78.367-78.367C239.183,366.911,204.029,331.755,160.816,331.755z M160.816,472.816
			c-34.569,0-62.694-28.125-62.694-62.694s28.125-62.694,62.694-62.694s62.694,28.124,62.694,62.694
			S195.385,472.816,160.816,472.816z"/>
	</g>
</g>
<g>
	<g>
		<path d="M160.816,376.163c-18.726,0-33.959,15.234-33.959,33.959s15.234,33.959,33.959,33.959
			c18.726,0,33.959-15.234,33.959-33.959S179.542,376.163,160.816,376.163z M160.816,428.408c-10.082,0-18.286-8.203-18.286-18.286
			s8.203-18.286,18.286-18.286c10.083,0,18.286,8.203,18.286,18.286S170.899,428.408,160.816,428.408z"/>
	</g>
</g>
<g>
	<g>
		<circle cx="160.82" cy="361.796" r="7.837"/>
	</g>
</g>
<g>
	<g>
		<circle cx="160.82" cy="458.449" r="7.837"/>
	</g>
</g>
<g>
	<g>
		<circle cx="209.147" cy="410.122" r="7.837"/>
	</g>
</g>
<g>
	<g>
		<circle cx="112.494" cy="410.122" r="7.837"/>
	</g>
</g>
</svg>